# Alias OBJ Model File
# Exported from SketchUp, (c) 2000-2012 Trimble Navigation Limited
# File units = inches

mtllib INVISIBLE_Cindy.mtl

g Mesh1 Model

usemtl FrontColor
v 32.5798 43.0375 -37.5068
vt -37.5068 43.0375
vn -1 0 -0
v 32.5798 43.0375 -48.1318
vt -48.1318 43.0375
v 32.5798 25.8437 -48.1318
vt -48.1318 25.8437
v 32.5798 25.8438 -28.3818
vt -28.3818 25.8438
v 32.5798 34.3875 -28.3818
vt -28.3818 34.3875
v 32.5798 34.3875 -37.5068
vt -37.5068 34.3875
f 1/1/1 2/2/1 3/3/1 4/4/1 5/5/1 6/6/1 

usemtl Josh_Shirt_01
vt 32.5798 48.1318
vn 0 1 -0
vt 32.5798 37.5068
v 38.4607 43.0375 -37.5068
vt 38.4607 37.5068
v 38.4607 43.0375 -48.1318
vt 38.4607 48.1318
f 2/7/2 1/8/2 7/9/2 8/10/2 

vt 32.5798 34.3875
vn 0 0 1
v 38.4607 34.3875 -37.5068
vt 38.4607 34.3875
vt 38.4607 43.0375
vt 32.5798 43.0375
f 6/11/3 9/12/3 7/13/3 1/14/3 

vt 32.5798 28.3818
v 38.4607 34.3875 -28.3818
vt 38.4607 28.3818
f 6/8/2 5/15/2 10/16/2 9/9/2 

vt 32.5798 25.8438
v 45.3859 25.8438 -28.3818
vt 45.3859 25.8438
v 45.3859 51.6875 -28.3818
vt 45.3859 51.6875
v 38.4607 51.6875 -28.3818
vt 38.4607 51.6875
f 4/17/3 11/18/3 12/19/3 13/20/3 10/12/3 5/11/3 

usemtl FrontColor
v 75.4796 25.8438 -37.5068
vt 75.4796 37.5068
vn -5.39138e-18 1 1.22366e-18
v 69.7386 25.8438 -37.5068
vt 69.7386 37.5068
v 69.7386 25.8438 -201.944
vt 69.7386 201.944
v 66.1496 25.8438 -201.944
vt 66.1496 201.944
v 66.1496 25.8438 -41.0068
vt 66.1496 41.0068
v 60.7736 25.8438 -41.0068
vt 60.7736 41.0068
v 60.7736 25.8438 -201.944
vt 60.7736 201.944
v 57.0347 25.8438 -201.944
vt 57.0347 201.944
v 57.0347 25.8438 -28.3818
vt 57.0347 28.3818
v 50.5972 25.8438 -28.3818
vt 50.5972 28.3818
v 50.5972 25.8438 -201.944
vt 50.5972 201.944
v 45.3859 25.8438 -201.944
vt 45.3859 201.944
vt 45.3859 28.3818
v 32.5798 25.8438 -201.944
vt 32.5798 201.944
v 20.3659 25.8438 -201.944
vt 20.3659 201.944
v 20.3659 25.8438 -37.5068
vt 20.3659 37.5068
v 14.0398 25.8438 -37.5068
vt 14.0398 37.5068
v 14.0398 25.8438 -201.944
vt 14.0398 201.944
v 11.6023 25.8438 -201.944
vt 11.6023 201.944
v 11.6023 25.8438 -16.8818
vt 11.6023 16.8818
v 66.1496 25.8438 -16.8818
vt 66.1496 16.8818
v 66.1496 25.8438 -25.6943
vt 66.1496 25.6943
v 75.4796 25.8438 -25.6943
vt 75.4796 25.6943
f 14/21/4 15/22/4 16/23/4 17/24/4 18/25/4 19/26/4 20/27/4 21/28/4 22/29/4 23/30/4 24/31/4 25/32/4 11/33/4 4/15/4 3/7/4 26/34/4 27/35/4 28/36/4 29/37/4 30/38/4 31/39/4 32/40/4 33/41/4 34/42/4 35/43/4 

usemtl Josh_Shirt_01
vt 75.4796 25.8438
v 75.4796 38.7656 -37.5068
vt 75.4796 38.7656
v 69.7386 38.7656 -37.5068
vt 69.7386 38.7656
vt 69.7386 25.8438
f 14/44/3 36/45/3 37/46/3 15/47/3 

usemtl FrontColor
v 75.4796 38.7656 -48.1318
vt 48.1318 38.7656
vn 1 0 -0
vt 37.5068 38.7656
vt 37.5068 25.8438
v 75.4796 25.8438 -201.944
vt 201.944 25.8438
v 75.4796 38.7656 -201.944
vt 201.944 38.7656
f 38/48/5 36/49/5 14/50/5 39/51/5 40/52/5 

usemtl Josh_Shirt_01
v 69.7386 38.7656 -48.1318
vt 69.7386 48.1318
vt 75.4796 48.1318
f 41/53/2 37/22/2 36/21/2 38/54/2 

usemtl FrontColor
vt -201.944 25.8438
vt -37.5068 25.8438
vt -37.5068 38.7656
vt -48.1318 38.7656
v 69.7386 51.6875 -48.1318
vt -48.1318 51.6875
v 69.7386 51.6875 -201.944
vt -201.944 51.6875
f 16/55/1 15/56/1 37/57/1 41/58/1 42/59/1 43/60/1 

usemtl Josh_Shirt_01
vt 69.7386 51.6875
v 75.4796 51.6875 -48.1318
vt 75.4796 51.6875
f 42/61/3 41/46/3 38/45/3 44/62/3 

usemtl FrontColor
vt 48.1318 51.6875
v 75.4796 51.6875 -201.944
vt 201.944 51.6875
f 44/63/5 38/48/5 40/52/5 45/64/5 

v 122.414 30.8633 -201.944
vt -122.414 30.8633
vn 9.73648e-17 3.66993e-16 -1
v 130.366 30.8633 -201.944
vt -130.366 30.8633
v 130.366 25.8437 -201.944
vt -130.366 25.8437
v 194.352 25.8438 -201.944
vt -194.352 25.8437
v 194.352 0 -201.944
vt -194.352 -7.41121e-14
v 11.6023 0 -201.944
vt -11.6023 -7.41121e-14
vt -11.6023 25.8437
vt -14.0398 25.8437
v 14.0398 51.6875 -201.944
vt -14.0398 51.6875
v 20.3659 51.6875 -201.944
vt -20.3659 51.6875
v 20.3659 38.7656 -201.944
vt -20.3659 38.7656
vt -20.3659 25.8437
vt -32.5798 25.8437
v 26.4134 26.25 -201.944
vt -26.4134 26.25
v 26.4134 51.6875 -201.944
vt -26.4134 51.6875
v 45.3859 51.6875 -201.944
vt -45.3859 51.6875
vt -45.3859 25.8437
vt -50.5972 25.8437
v 50.5972 51.6875 -201.944
vt -50.5972 51.6875
v 57.0347 51.6875 -201.944
vt -57.0347 51.6875
v 57.0347 38.7656 -201.944
vt -57.0347 38.7656
v 57.0347 32.3047 -201.944
vt -57.0347 32.3047
vt -57.0347 25.8437
vt -60.7736 25.8437
v 60.7736 51.6875 -201.944
vt -60.7736 51.6875
v 66.1496 51.6875 -201.944
vt -66.1496 51.6875
v 66.1496 38.7656 -201.944
vt -66.1496 38.7656
vt -66.1496 25.8437
vt -69.7386 25.8437
vt -69.7386 51.6875
vt -75.4796 51.6875
vt -75.4796 38.7656
vt -75.4796 25.8437
v 78.2859 25.8438 -201.944
vt -78.2859 25.8437
v 78.2859 51.6875 -201.944
vt -78.2859 51.6875
v 101.673 51.6875 -201.944
vt -101.673 51.6875
v 101.673 25.8438 -201.944
vt -101.673 25.8437
v 104.336 25.8438 -201.944
vt -104.336 25.8437
v 104.336 51.6875 -201.944
vt -104.336 51.6875
v 111.031 51.6875 -201.944
vt -111.031 51.6875
v 111.031 38.7656 -201.944
vt -111.031 38.7656
v 111.031 33.9457 -201.944
vt -111.031 33.9457
v 111.031 30.1489 -201.944
vt -111.031 30.1489
v 111.031 25.8438 -201.944
vt -111.031 25.8437
v 113.361 25.8438 -201.944
vt -113.361 25.8437
v 113.361 51.6875 -201.944
vt -113.361 51.6875
v 118.77 51.6875 -201.944
vt -118.77 51.6875
v 118.77 30.5793 -201.944
vt -118.77 30.5793
v 118.77 25.8438 -201.944
vt -118.77 25.8437
v 122.414 25.8438 -201.944
vt -122.414 25.8437
f 46/65/6 47/66/6 48/67/6 49/68/6 50/69/6 51/70/6 31/71/6 30/72/6 52/73/6 53/74/6 54/75/6 27/76/6 26/77/6 55/78/6 56/79/6 57/80/6 25/81/6 24/82/6 58/83/6 59/84/6 60/85/6 61/86/6 21/87/6 20/88/6 62/89/6 63/90/6 64/91/6 17/92/6 16/93/6 43/94/6 45/95/6 40/96/6 39/97/6 65/98/6 66/99/6 67/100/6 68/101/6 69/102/6 70/103/6 71/104/6 72/105/6 73/106/6 74/107/6 75/108/6 76/109/6 77/110/6 78/111/6 79/112/6 80/113/6 81/114/6 

v 122.414 30.8633 -16.8818
vt 122.414 16.8818
v 130.366 30.8633 -16.8818
vt 130.366 16.8818
vt 130.366 201.944
vt 122.414 201.944
f 82/115/2 83/116/2 47/117/2 46/118/2 

usemtl Josh_Shirt_01
v 130.366 25.8437 -16.8818
vt 130.366 25.8437
vt 130.366 30.8633
vt 122.414 30.8633
v 122.414 25.8438 -16.8818
vt 122.414 25.8438
f 84/119/3 83/120/3 82/121/3 85/122/3 

usemtl FrontColor
vt 16.8818 30.8633
vt 16.8818 25.8437
vt 201.944 25.8437
vt 201.944 30.8633
f 83/123/5 84/124/5 48/125/5 47/126/5 

vn -5.55231e-17 1 -0
v 194.352 25.8438 -16.8818
vt 194.352 16.8818
vt 194.352 201.944
f 84/116/7 86/127/7 49/128/7 48/117/7 

vt 194.352 25.8438
v 130.366 0 -16.8818
vt 130.366 0
v 194.352 0 -16.8818
vt 194.352 0
f 86/129/3 84/119/3 87/130/3 88/131/3 

v 11.6023 0 -16.8818
vt 11.6023 0
v 118.77 25.8438 -16.8818
vt 118.77 25.8438
v 113.361 25.8438 -16.8818
vt 113.361 25.8438
v 84.5984 25.8438 -16.8818
vt 84.5984 25.8438
vt 66.1496 25.8438
vt 11.6023 25.8438
f 89/132/3 87/130/3 84/119/3 85/122/3 90/133/3 91/134/3 92/135/3 33/136/3 32/137/3 

vt -11.6023 16.8818
vn 0 -1 -0
vt -11.6023 201.944
vt -194.352 201.944
vt -194.352 16.8818
vt -130.366 16.8818
f 89/138/8 51/139/8 50/140/8 88/141/8 87/142/8 

vt -16.8818 0
vt -16.8818 25.8438
vt -201.944 0
f 89/143/1 32/144/1 31/55/1 51/145/1 

vt 201.944 0
vt 16.8818 25.8438
vt 16.8818 0
f 50/146/5 49/51/5 86/147/5 88/148/5 

vt 118.77 16.8818
vt 118.77 201.944
f 90/149/2 85/115/2 81/118/2 80/150/2 

vt -16.8818 30.8633
vt -201.944 30.8633
f 82/151/1 46/152/1 81/55/1 85/144/1 

v 118.77 30.5793 -16.8818
vt 16.8818 30.5793
vt 201.944 30.5793
v 118.77 30.5793 -33.0693
vt 33.0693 30.5793
f 93/153/5 90/147/5 80/51/5 79/154/5 94/155/5 

usemtl Josh_Shirt_01
vt 118.77 30.5793
v 113.361 30.5793 -16.8818
vt 113.361 30.5793
f 90/133/3 93/156/3 95/157/3 91/134/3 

usemtl Terrazzo
vt 15.1148 2.25091
vt 15.836 2.25091
vt 15.836 4.40924
v 113.361 30.5793 -33.0693
vt 15.1148 4.40924
f 95/158/2 93/159/2 94/160/2 96/161/2 

usemtl Josh_Shirt_01
v 113.361 51.6875 -33.0693
vt 113.361 51.6875
v 118.77 51.6875 -33.0693
vt 118.77 51.6875
f 97/162/3 96/157/3 94/156/3 98/163/3 

usemtl FrontColor
vt -16.8818 30.5793
vt -33.0693 30.5793
vt -33.0693 51.6875
f 91/144/1 95/164/1 96/165/1 97/166/1 77/60/1 76/55/1 

vt 118.77 33.0693
vt 113.361 201.944
vt 113.361 33.0693
f 98/167/2 78/150/2 77/168/2 97/169/2 

vt 33.0693 51.6875
f 98/170/5 94/155/5 79/154/5 78/64/5 

vt 84.5984 16.8818
vt 113.361 16.8818
vt 111.031 201.944
v 111.031 25.8438 -25.6943
vt 111.031 25.6943
v 104.336 25.8438 -25.6943
vt 104.336 25.6943
vt 104.336 201.944
vt 101.673 201.944
v 101.673 25.8438 -37.5068
vt 101.673 37.5068
v 95.4852 25.8438 -37.5068
vt 95.4852 37.5068
v 95.4852 25.8438 -107.757
vt 95.4852 107.757
v 92.4109 25.8438 -107.757
vt 92.4109 107.757
v 84.5984 25.8438 -107.757
vt 84.5984 107.757
v 78.2859 25.8438 -107.757
vt 78.2859 107.757
vt 78.2859 201.944
vt 75.4796 201.944
v 84.5984 25.8438 -25.6943
vt 84.5984 25.6943
f 92/171/2 91/172/2 76/168/2 75/173/2 99/174/2 100/175/2 69/176/2 68/177/2 101/178/2 102/179/2 103/180/2 104/181/2 105/182/2 106/183/2 65/184/2 39/185/2 14/21/2 35/43/2 107/186/2 

v 111.031 38.7656 -25.6943
vt 25.6943 38.7656
vt 25.6943 25.8438
vt 201.944 30.1489
v 111.031 30.1489 -37.5068
vt 37.5068 30.1489
v 111.031 30.1489 -30.1318
vt 30.1318 30.1489
v 111.031 33.9457 -30.1318
vt 30.1318 33.9457
v 111.031 33.9457 -37.5068
vt 37.5068 33.9457
vt 201.944 33.9457
v 111.031 38.7656 -37.5068
f 108/187/5 99/188/5 75/51/5 74/189/5 109/190/5 110/191/5 111/192/5 112/193/5 73/194/5 72/52/5 113/49/5 

usemtl Josh_Shirt_01
vt 111.031 25.8438
vt 111.031 38.7656
v 104.336 38.7656 -25.6943
vt 104.336 38.7656
vt 104.336 25.8438
f 99/195/3 108/196/3 114/197/3 100/198/3 

v 104.336 38.7656 -37.5068
vt 104.336 37.5068
vt 111.031 37.5068
f 115/199/2 114/175/2 108/174/2 113/200/2 

usemtl FrontColor
v 104.336 33.9457 -30.1318
vt -30.1318 33.9457
vt -25.6943 38.7656
f 116/201/1 114/202/1 115/57/1

vt -25.6943 25.8438
f 114/202/1 116/201/1 100/203/1

v 104.336 30.1489 -30.1318
vt -30.1318 30.1489
f 117/204/1 100/203/1 116/201/1

f 100/203/1 117/204/1 69/55/1

v 104.336 30.1489 -37.5068
vt -37.5068 30.1489
f 69/55/1 117/204/1 118/205/1

vt 104.336 30.1318
vt 111.031 30.1318
f 118/199/2 117/206/2 110/207/2 109/200/2 

vt -104.336 30.1489
vn 0 0 -1
vt -104.336 33.9457
f 117/208/9 116/209/9 111/106/9 110/107/9 

vt -104.336 30.1318
v 104.336 33.9457 -37.5068
vt -104.336 37.5068
v 107.586 33.9457 -37.5068
vt -107.586 37.5068
v 109.149 33.9457 -37.5068
vt -109.149 37.5068
vt -111.031 37.5068
vt -111.031 30.1318
f 116/210/8 119/211/8 120/212/8 121/213/8 112/214/8 111/215/8 

vt -37.5068 33.9457
f 116/201/1 115/57/1 119/216/1

f 115/57/1 70/60/1 119/216/1

v 104.336 51.6875 -37.5068
vt -37.5068 51.6875
f 70/60/1 115/57/1 122/217/1

usemtl Josh_Shirt_01
vt 104.336 51.6875
v 111.031 51.6875 -37.5068
vt 111.031 51.6875
f 122/218/3 115/197/3 113/196/3 123/219/3 

usemtl FrontColor
vt 37.5068 51.6875
f 123/220/5 113/49/5 72/52/5 71/64/5 

f 123/200/2 71/173/2 70/176/2 122/199/2 

f 119/216/1 70/60/1 118/205/1

f 69/55/1 118/205/1 70/60/1

usemtl Josh_Shirt_01
vt 104.336 33.9457
vt 104.336 30.1489
vt 111.031 30.1489
vt 111.031 33.9457
vt 109.149 33.9457
vt 107.586 33.9457
f 119/221/3 118/222/3 109/223/3 112/224/3 121/225/3 120/226/3 

usemtl FrontColor
f 109/190/5 112/193/5 111/192/5 110/191/5 

f 112/193/5 109/190/5 74/189/5 73/194/5 

v 101.673 51.6875 -37.5068
f 124/220/5 101/50/5 68/51/5 67/64/5 

usemtl Josh_Shirt_01
vt 95.4852 25.8438
vt 101.673 25.8438
vt 101.673 51.6875
v 95.4852 51.6875 -37.5068
vt 95.4852 51.6875
f 102/227/3 101/228/3 124/229/3 125/230/3 

usemtl FrontColor
v 78.2859 51.6875 -48.1318
vt 78.2859 48.1318
v 92.4109 51.6875 -48.1318
vt 92.4109 48.1318
v 92.4109 51.6875 -107.757
v 95.4852 51.6875 -107.757
f 124/178/2 67/177/2 66/184/2 126/231/2 127/232/2 128/181/2 129/180/2 125/179/2 

vt -107.757 25.8438
v 78.2859 31.454 -107.757
vt -107.757 31.454
v 78.2859 31.454 -126.069
vt -126.069 31.454
v 78.2859 36.0165 -126.069
vt -126.069 36.0165
v 78.2859 36.0165 -25.6943
vt -25.6943 36.0165
v 78.2859 31.5165 -25.6943
vt -25.6943 31.5165
v 78.2859 31.5165 -16.8818
vt -16.8818 31.5165
v 78.2859 43.0642 -16.8818
vt -16.8818 43.0642
v 78.2859 43.0642 -48.1318
vt -48.1318 43.0642
f 65/55/1 106/233/1 130/234/1 131/235/1 132/236/1 133/237/1 134/238/1 135/239/1 136/240/1 137/241/1 126/59/1 66/60/1 

vt 78.2859 31.454
vt 78.2859 25.8438
v 84.5984 31.454 -107.757
vt 84.5984 31.454
f 130/242/3 106/243/3 105/135/3 138/244/3 

vt 92.4109 25.8438
v 92.4109 46.5017 -107.757
vt 92.4109 46.5017
v 84.5984 46.5017 -107.757
vt 84.5984 46.5017
v 84.5984 43.0642 -107.757
vt 84.5984 43.0642
v 84.5984 36.0165 -107.757
vt 84.5984 36.0165
f 105/135/3 104/245/3 139/246/3 140/247/3 141/248/3 142/249/3 138/244/3 

vt 92.4109 51.6875
f 104/245/3 103/227/3 129/230/3 128/250/3 139/246/3 

vt -107.757 51.6875
f 103/233/1 102/56/1 125/217/1 129/251/1 

v 92.4109 46.5017 -48.1318
vt 48.1318 46.5017
vt 107.757 46.5017
vt 107.757 51.6875
f 143/252/5 139/253/5 128/254/5 127/63/5 

vt -92.4109 48.1318
v 84.5984 46.5017 -48.1318
vt -84.5984 48.1318
vt -84.5984 107.757
vt -92.4109 107.757
f 143/255/8 144/256/8 140/257/8 139/258/8 

usemtl Josh_Shirt_01
vt 78.2859 51.6875
vt 78.2859 43.0642
v 84.5984 43.0642 -48.1318
f 126/259/3 137/260/3 145/248/3 144/247/3 143/246/3 127/250/3 

vt 78.2859 16.8818
v 84.5984 43.0642 -16.8818
vt 84.5984 48.1318
f 136/261/2 146/171/2 145/262/2 137/231/2 

vt 78.2859 31.5165
v 66.1496 31.5165 -16.8818
vt 66.1496 31.5165
f 33/136/3 92/135/3 146/248/3 136/260/3 135/263/3 147/264/3 

usemtl FrontColor
v 84.5984 36.0165 -25.6943
vt 25.6943 36.0165
vt 107.757 36.0165
vt 107.757 43.0642
vt 48.1318 43.0642
vt 16.8818 43.0642
f 92/147/5 107/188/5 148/265/5 142/266/5 141/267/5 145/268/5 146/269/5 

vt -66.1496 25.8438
v 66.1496 31.5165 -25.6943
vt -66.1496 31.5165
vt -78.2859 31.5165
vt -78.2859 36.0165
vt -84.5984 36.0165
vt -84.5984 25.8438
vt -75.4796 25.8438
f 34/270/9 149/271/9 134/272/9 133/273/9 148/274/9 107/275/9 35/276/9 

f 33/144/1 147/239/1 149/238/1 34/203/1 

vt 78.2859 25.6943
f 135/261/2 134/277/2 149/42/2 147/41/2 

vt -78.2859 25.6943
vt -78.2859 126.069
v 84.5984 36.0165 -126.069
vt -84.5984 126.069
vt -84.5984 25.6943
f 133/278/8 132/279/8 150/280/8 142/257/8 148/281/8 

vt 78.2859 36.0165
v 84.5984 31.454 -126.069
f 132/282/3 131/242/3 151/244/3 150/249/3 

vt 84.5984 126.069
vt 78.2859 126.069
f 151/283/2 131/284/2 130/183/2 138/182/2 

vt -107.757 36.0165
f 151/235/1 138/234/1 142/285/1 150/236/1 

f 144/252/5 145/268/5 141/267/5 140/253/5 

v 14.0398 38.7656 -37.5068
v 14.0398 38.7656 -48.1318
v 14.0398 51.6875 -48.1318
f 52/60/1 30/55/1 29/56/1 152/57/1 153/58/1 154/59/1 

usemtl Josh_Shirt_01
vt 20.3659 25.8438
v 20.3659 38.7656 -37.5068
vt 20.3659 38.7656
vt 14.0398 38.7656
vt 14.0398 25.8438
f 28/286/3 155/287/3 152/288/3 29/289/3 

usemtl FrontColor
v 20.3659 38.7656 -48.1318
f 156/48/5 155/49/5 28/50/5 27/51/5 54/52/5 

usemtl Josh_Shirt_01
vt 14.0398 48.1318
vt 20.3659 48.1318
f 153/290/2 152/37/2 155/36/2 156/291/2 

v 20.3659 51.6875 -48.1318
vt 20.3659 51.6875
vt 14.0398 51.6875
f 157/292/3 154/293/3 153/288/3 156/287/3 

usemtl FrontColor
f 53/35/2 52/38/2 154/290/2 157/291/2 

vn 1 -1.37469e-16 1.0354e-17
f 157/63/10 156/48/10 54/52/10 53/64/10 

vt -48.1318 -30.8103
vn -0.0657393 -0.997837 -3.07848e-17
v 26.4134 26.25 -48.1318
vt -48.1318 -24.6306
vt -201.944 -24.6306
vt -201.944 -30.8103
f 3/294/11 158/295/11 55/296/11 26/297/11 

usemtl Josh_Shirt_01
v 38.4607 51.6875 -48.1318
vn -7.20515e-16 -2.35976e-16 1
v 26.4134 51.6875 -48.1318
vt 26.4134 51.6875
vt 26.4134 26.25
vt 32.5798 25.8437
f 159/20/12 160/298/12 158/299/12 3/300/12 2/14/12 8/13/12 

usemtl FrontColor
vt 26.4134 201.944
vt 26.4134 48.1318
f 12/33/2 57/32/2 56/301/2 160/302/2 159/10/2 13/16/2 

vt 28.3818 51.6875
vt 28.3818 25.8438
f 57/64/5 12/303/5 11/304/5 25/51/5 

vt -48.1318 26.25
vt -201.944 26.25
f 158/305/1 160/59/1 56/60/1 55/306/1 

vt -28.3818 51.6875
f 9/6/1 10/5/1 13/307/1 159/59/1 8/2/1 7/1/1 

v 50.5972 32.3047 -28.3818
vt -28.3818 32.3047
v 50.5972 32.3047 -37.5068
vt -37.5068 32.3047
v 50.5972 38.7656 -37.5068
v 50.5972 38.7656 -48.1318
v 50.5972 51.6875 -48.1318
f 24/55/1 23/4/1 161/308/1 162/309/1 163/57/1 164/58/1 165/59/1 58/60/1 

usemtl Josh_Shirt_01
vt 57.0347 25.8438
v 57.0347 32.3047 -28.3818
vt 57.0347 32.3047
vt 50.5972 32.3047
vt 50.5972 25.8438
f 22/310/3 166/311/3 161/312/3 23/313/3 

usemtl FrontColor
v 57.0347 32.3047 -37.5068
vt 37.5068 32.3047
vt 28.3818 32.3047
vt 201.944 32.3047
f 167/314/5 166/315/5 22/304/5 21/51/5 61/316/5 

usemtl Josh_Shirt_01
vt 50.5972 37.5068
vt 57.0347 37.5068
f 162/317/2 161/30/2 166/29/2 167/318/2 

vt 50.5972 38.7656
v 57.0347 38.7656 -37.5068
vt 57.0347 38.7656
f 163/319/3 162/312/3 167/311/3 168/320/3 

usemtl FrontColor
v 57.0347 38.7656 -48.1318
f 168/49/5 167/314/5 61/316/5 60/52/5 169/48/5 

v 57.0347 51.6875 -48.1318
f 170/63/5 169/48/5 60/52/5 59/64/5 

usemtl Josh_Shirt_01
vt 50.5972 51.6875
vt 57.0347 51.6875
f 165/321/3 164/319/3 169/320/3 170/322/3 

vt 50.5972 48.1318
vt 57.0347 48.1318
f 164/323/2 163/317/2 168/318/2 169/324/2 

usemtl FrontColor
f 170/324/2 59/28/2 58/31/2 165/323/2 

vt -41.0068 25.8438
v 60.7736 38.7656 -41.0068
vt -41.0068 38.7656
v 60.7736 38.7656 -35.1943
vt -35.1943 38.7656
v 60.7736 51.6875 -35.1943
vt -35.1943 51.6875
f 20/55/1 19/325/1 171/326/1 172/327/1 173/328/1 62/60/1 

usemtl Josh_Shirt_01
v 66.1496 38.7656 -41.0068
vt 66.1496 38.7656
vt 60.7736 38.7656
vt 60.7736 25.8438
f 18/136/3 174/329/3 171/330/3 19/331/3 

usemtl FrontColor
vt 41.0068 38.7656
vt 41.0068 25.8438
f 174/332/5 18/333/5 17/51/5 64/52/5 

v 66.1496 51.6875 -35.1943
vt 35.1943 51.6875
v 66.1496 38.7656 -35.1943
vt 35.1943 38.7656
f 175/334/5 176/335/5 174/332/5 64/52/5 63/64/5 

usemtl Josh_Shirt_01
vt 60.7736 51.6875
vt 66.1496 51.6875
f 173/336/3 172/330/3 176/329/3 175/337/3 

usemtl FrontColor
vt -60.7736 41.0068
vt -66.1496 41.0068
vt -66.1496 35.1943
vt -60.7736 35.1943
f 171/338/8 174/339/8 176/340/8 172/341/8 

vt 66.1496 35.1943
vt 60.7736 35.1943
f 175/342/2 63/24/2 62/27/2 173/343/2 

f 44/54/2 45/185/2 43/23/2 42/53/2 

g Mesh2 Model

v 130.366 51.6875 -16.8818
v 130.366 51.6875 -201.944
v 122.414 51.6875 -201.944
v 122.414 51.6875 -16.8818
f 177/116/2 178/117/2 179/118/2 180/115/2 

vt 16.8818 51.6875
v 130.366 46.0388 -16.8818
vt 16.8818 46.0388
v 130.366 46.0388 -201.944
vt 201.944 46.0388
f 177/344/5 181/345/5 182/346/5 178/64/5 

usemtl Josh_Shirt_01
vt 122.414 51.6875
v 122.414 46.0388 -16.8818
vt 122.414 46.0388
vt 130.366 46.0388
vt 130.366 51.6875
f 180/347/3 183/348/3 181/349/3 177/350/3 

usemtl FrontColor
v 122.414 46.0388 -201.944
vt -201.944 46.0388
vt -16.8818 46.0388
vt -16.8818 51.6875
f 179/60/1 184/351/1 183/352/1 180/353/1 

vt -122.414 51.6875
vt -130.366 51.6875
vt -130.366 46.0388
vt -122.414 46.0388
f 179/354/9 178/355/9 182/356/9 184/357/9 

vt -122.414 16.8818
vt -122.414 201.944
vt -130.366 201.944
f 181/142/8 183/358/8 184/359/8 182/360/8 

g Mesh3 Model

v 122.414 41.2576 -16.8818
v 130.366 41.2576 -16.8818
v 130.366 41.2576 -201.944
v 122.414 41.2576 -201.944
f 185/115/2 186/116/2 187/117/2 188/118/2 

usemtl Josh_Shirt_01
vt 122.414 41.2576
v 122.414 35.8828 -16.8818
vt 122.414 35.8828
v 130.366 35.8828 -16.8818
vt 130.366 35.8828
vt 130.366 41.2576
f 185/361/3 189/362/3 190/363/3 186/364/3 

usemtl FrontColor
vt -201.944 41.2576
v 122.414 35.8828 -201.944
vt -201.944 35.8828
vt -16.8818 35.8828
vt -16.8818 41.2576
f 188/365/1 191/366/1 189/367/1 185/368/1 

vt -122.414 41.2576
vt -130.366 41.2576
v 130.366 35.8828 -201.944
vt -130.366 35.8828
vt -122.414 35.8828
f 188/369/9 187/370/9 192/371/9 191/372/9 

vt 16.8818 41.2576
vt 16.8818 35.8828
vt 201.944 35.8828
vt 201.944 41.2576
f 186/373/5 190/374/5 192/375/5 187/376/5 

f 190/142/8 189/358/8 191/359/8 192/360/8 

